<?xml version="1.0" encoding="iso-8859-1"?>
<!-- Uploaded to: SVG Repo, www.svgrepo.com, Generator: SVG Repo Mixer Tools -->
<svg height="800px" width="800px" version="1.1" id="Layer_1" xmlns="http://www.w3.org/2000/svg" xmlns:xlink="http://www.w3.org/1999/xlink" 
	 viewBox="0 0 512 512" xml:space="preserve">
<g transform="translate(0 1)">
	<path style="fill:#FD9808;" d="M256,7.393c-50.361,0-92.328,41.128-92.328,92.328v16.787h184.656V99.721
		C348.328,48.521,306.361,7.393,256,7.393"/>
	<path style="fill:#FFDD09;" d="M243.41,7.393c-43.646,0-79.738,41.128-79.738,92.328v16.787h159.475V99.721
		C323.148,48.521,287.056,7.393,243.41,7.393"/>
	<path style="fill:#FFFFFF;" d="M257.679,7.393c2.518,0,4.197,0,6.715,0c-41.128,3.357-73.862,43.646-73.862,92.328v16.787h-25.18
		V99.721C165.351,48.521,206.479,7.393,257.679,7.393"/>
	<polygon style="fill:#FD9808;" points="449.049,368.311 180.459,368.311 281.18,116.508 348.328,116.508 	"/>
	<polygon style="fill:#FFFFFF;" points="331.541,368.311 62.951,368.311 163.672,116.508 230.82,116.508 	"/>
	<polygon style="fill:#FFDD09;" points="423.869,368.311 88.131,368.311 188.852,116.508 323.148,116.508 	"/>
	<polygon style="fill:#FD9808;" points="314.754,418.672 449.049,418.672 449.049,368.311 314.754,368.311 	"/>
	<path style="fill:#1CD759;" d="M323.148,242.41c0,36.931-30.216,67.148-67.148,67.148s-67.148-30.216-67.148-67.148
		s30.216-67.148,67.148-67.148S323.148,205.479,323.148,242.41"/>
	<polygon style="fill:#FFFFFF;" points="62.951,418.672 197.246,418.672 197.246,368.311 62.951,368.311 	"/>
	<polygon style="fill:#FFDD09;" points="88.131,418.672 423.869,418.672 423.869,368.311 88.131,368.311 	"/>
	<path style="fill:#54C9FD;" d="M289.574,242.41c0,18.466-15.108,33.574-33.574,33.574s-33.574-15.108-33.574-33.574
		s15.108-33.574,33.574-33.574S289.574,223.944,289.574,242.41"/>
	<path d="M449.049,376.705H62.951c-2.518,0-5.036-1.679-6.715-3.357c-1.679-1.679-1.679-5.036-0.839-7.554L156.118,113.99
		c1.679-3.357,4.197-5.036,7.554-5.036h184.656c3.357,0,6.715,1.679,7.554,5.036l100.721,251.803
		c0.839,2.518,0.839,5.875-0.839,7.554C454.085,375.026,451.567,376.705,449.049,376.705z M75.541,359.918h360.918l-94.007-235.016
		H169.548L75.541,359.918z"/>
	<path d="M449.049,427.066H62.951c-5.036,0-8.393-3.357-8.393-8.393v-50.361c0-5.036,3.357-8.393,8.393-8.393h386.098
		c5.036,0,8.393,3.357,8.393,8.393v50.361C457.443,423.708,454.085,427.066,449.049,427.066z M71.344,410.279h369.311v-33.574
		H71.344V410.279z"/>
	<path d="M348.328,124.902H163.672c-5.036,0-8.393-3.357-8.393-8.393V99.721C155.279,44.325,200.603-1,256-1
		S356.721,44.325,356.721,99.721v16.787C356.721,121.544,353.364,124.902,348.328,124.902z M172.066,108.115h167.869v-8.393
		c0-46.164-37.771-83.934-83.934-83.934s-83.934,37.77-83.934,83.934V108.115z"/>
	<path d="M264.393,502.607c0,5.036-3.357,8.393-8.393,8.393c-5.036,0-8.393-3.357-8.393-8.393c0-5.036,3.357-8.393,8.393-8.393
		C261.036,494.213,264.393,497.57,264.393,502.607"/>
	<path d="M256,477.426c-5.036,0-8.393-3.357-8.393-8.393v-16.787c0-5.036,3.357-8.393,8.393-8.393c5.036,0,8.393,3.357,8.393,8.393
		v16.787C264.393,474.069,261.036,477.426,256,477.426z"/>
	<path d="M306.361,494.213c0,5.036,3.357,8.393,8.393,8.393c5.036,0,8.393-3.357,8.393-8.393c0-5.036-3.357-8.393-8.393-8.393
		C309.718,485.82,306.361,489.177,306.361,494.213"/>
	<path d="M297.967,477.426c-3.357,0-5.875-1.679-7.554-5.036l-8.393-16.787c-1.679-4.197,0-9.233,3.357-10.911
		c4.197-1.679,9.233,0,10.911,3.357l8.393,16.787c1.679,4.197,0,9.233-3.357,10.911
		C300.485,477.426,299.646,477.426,297.967,477.426z"/>
	<path d="M205.639,494.213c0,5.036-3.357,8.393-8.393,8.393c-5.036,0-8.393-3.357-8.393-8.393c0-5.036,3.357-8.393,8.393-8.393
		C202.282,485.82,205.639,489.177,205.639,494.213"/>
	<path d="M214.033,477.426c-0.839,0-2.518,0-3.357-0.839c-4.197-1.679-5.875-6.715-3.357-10.911l8.393-16.787
		c1.679-4.197,6.715-5.875,10.911-3.357c4.197,1.679,5.875,6.715,3.357,10.911l-8.393,16.787
		C219.908,475.747,217.39,477.426,214.033,477.426z"/>
	<path d="M423.869,502.607c0,5.036-3.357,8.393-8.393,8.393c-5.036,0-8.393-3.357-8.393-8.393c0-5.036,3.357-8.393,8.393-8.393
		C420.511,494.213,423.869,497.57,423.869,502.607"/>
	<path d="M415.475,477.426c-5.036,0-8.393-3.357-8.393-8.393v-16.787c0-5.036,3.357-8.393,8.393-8.393
		c5.036,0,8.393,3.357,8.393,8.393v16.787C423.869,474.069,420.511,477.426,415.475,477.426z"/>
	<path d="M465.836,494.213c0,5.036,3.357,8.393,8.393,8.393c5.036,0,8.393-3.357,8.393-8.393c0-5.036-3.357-8.393-8.393-8.393
		C469.193,485.82,465.836,489.177,465.836,494.213"/>
	<path d="M457.443,477.426c-3.357,0-5.875-1.679-7.554-5.036l-8.393-16.787c-1.679-4.197,0-9.233,3.357-10.911
		c4.197-1.679,9.233,0,10.911,3.357l8.393,16.787c1.679,4.197,0,9.233-3.357,10.911
		C459.961,477.426,459.121,477.426,457.443,477.426z"/>
	<path d="M365.115,494.213c0,5.036-3.357,8.393-8.393,8.393c-5.036,0-8.393-3.357-8.393-8.393c0-5.036,3.357-8.393,8.393-8.393
		C361.757,485.82,365.115,489.177,365.115,494.213"/>
	<path d="M373.508,477.426c-1.679,0-2.518,0-3.357-0.839c-4.197-1.679-5.875-6.715-3.357-10.911l8.393-16.787
		c1.679-4.197,6.715-5.875,10.911-3.357c4.197,1.679,5.875,6.715,3.357,10.911l-8.393,16.787
		C379.384,475.747,376.866,477.426,373.508,477.426z"/>
	<path d="M104.918,502.607c0,5.036-3.357,8.393-8.393,8.393c-5.036,0-8.393-3.357-8.393-8.393c0-5.036,3.357-8.393,8.393-8.393
		C101.561,494.213,104.918,497.57,104.918,502.607"/>
	<path d="M96.525,477.426c-5.036,0-8.393-3.357-8.393-8.393v-16.787c0-5.036,3.357-8.393,8.393-8.393
		c5.036,0,8.393,3.357,8.393,8.393v16.787C104.918,474.069,101.561,477.426,96.525,477.426z"/>
	<path d="M146.885,494.213c0,5.036,3.357,8.393,8.393,8.393c5.036,0,8.393-3.357,8.393-8.393c0-5.036-3.357-8.393-8.393-8.393
		C150.243,485.82,146.885,489.177,146.885,494.213"/>
	<path d="M138.492,477.426c-3.357,0-5.875-1.679-7.554-5.036l-8.393-16.787c-1.679-4.197,0-9.233,3.357-10.911
		c4.197-1.679,9.233,0,10.911,3.357l8.393,16.787c1.679,4.197,0,9.233-3.357,10.911C141.01,477.426,140.17,477.426,138.492,477.426z
		"/>
	<path d="M46.164,494.213c0,5.036-3.357,8.393-8.393,8.393s-8.393-3.357-8.393-8.393c0-5.036,3.357-8.393,8.393-8.393
		S46.164,489.177,46.164,494.213"/>
	<path d="M54.557,477.426c-0.839,0-2.518,0-3.357-0.839c-4.197-1.679-5.875-6.715-3.357-10.911l8.393-16.787
		c1.679-4.197,6.715-5.875,10.911-3.357c4.197,1.679,5.875,6.715,3.357,10.911l-8.393,16.787
		C60.433,475.747,57.915,477.426,54.557,477.426z"/>
	<path d="M256,317.951c-41.967,0-75.541-33.574-75.541-75.541s33.574-75.541,75.541-75.541s75.541,33.574,75.541,75.541
		S297.967,317.951,256,317.951z M256,183.656c-32.734,0-58.754,26.02-58.754,58.754s26.02,58.754,58.754,58.754
		s58.754-26.02,58.754-58.754S288.734,183.656,256,183.656z"/>
	<path d="M172.066,192.049h-33.574c-5.036,0-8.393-3.357-8.393-8.393s3.357-8.393,8.393-8.393h33.574
		c5.036,0,8.393,3.357,8.393,8.393S177.102,192.049,172.066,192.049z"/>
	<path d="M146.885,250.803h-25.18c-5.036,0-8.393-3.357-8.393-8.393s3.357-8.393,8.393-8.393h25.18c5.036,0,8.393,3.357,8.393,8.393
		S151.921,250.803,146.885,250.803z"/>
	<path d="M163.672,309.557H96.525c-5.036,0-8.393-3.357-8.393-8.393c0-5.036,3.357-8.393,8.393-8.393h67.148
		c5.036,0,8.393,3.357,8.393,8.393C172.066,306.2,168.708,309.557,163.672,309.557z"/>
	<path d="M373.508,192.049h-33.574c-5.036,0-8.393-3.357-8.393-8.393s3.357-8.393,8.393-8.393h33.574
		c5.036,0,8.393,3.357,8.393,8.393S378.544,192.049,373.508,192.049z"/>
	<path d="M390.295,250.803h-25.18c-5.036,0-8.393-3.357-8.393-8.393s3.357-8.393,8.393-8.393h25.18c5.036,0,8.393,3.357,8.393,8.393
		S395.331,250.803,390.295,250.803z"/>
	<path d="M415.475,309.557h-67.148c-5.036,0-8.393-3.357-8.393-8.393c0-5.036,3.357-8.393,8.393-8.393h67.148
		c5.036,0,8.393,3.357,8.393,8.393C423.869,306.2,420.511,309.557,415.475,309.557z"/>
	<path d="M104.918,427.066c-5.036,0-8.393-3.357-8.393-8.393v-16.787c0-5.036,3.357-8.393,8.393-8.393
		c5.036,0,8.393,3.357,8.393,8.393v16.787C113.311,423.708,109.954,427.066,104.918,427.066z"/>
	<path d="M138.492,427.066c-5.036,0-8.393-3.357-8.393-8.393v-16.787c0-5.036,3.357-8.393,8.393-8.393
		c5.036,0,8.393,3.357,8.393,8.393v16.787C146.885,423.708,143.528,427.066,138.492,427.066z"/>
	<path d="M172.066,427.066c-5.036,0-8.393-3.357-8.393-8.393v-16.787c0-5.036,3.357-8.393,8.393-8.393s8.393,3.357,8.393,8.393
		v16.787C180.459,423.708,177.102,427.066,172.066,427.066z"/>
	<path d="M205.639,427.066c-5.036,0-8.393-3.357-8.393-8.393v-16.787c0-5.036,3.357-8.393,8.393-8.393
		c5.036,0,8.393,3.357,8.393,8.393v16.787C214.033,423.708,210.675,427.066,205.639,427.066z"/>
	<path d="M239.213,427.066c-5.036,0-8.393-3.357-8.393-8.393v-16.787c0-5.036,3.357-8.393,8.393-8.393s8.393,3.357,8.393,8.393
		v16.787C247.607,423.708,244.249,427.066,239.213,427.066z"/>
	<path d="M272.787,427.066c-5.036,0-8.393-3.357-8.393-8.393v-16.787c0-5.036,3.357-8.393,8.393-8.393s8.393,3.357,8.393,8.393
		v16.787C281.18,423.708,277.823,427.066,272.787,427.066z"/>
	<path d="M306.361,427.066c-5.036,0-8.393-3.357-8.393-8.393v-16.787c0-5.036,3.357-8.393,8.393-8.393
		c5.036,0,8.393,3.357,8.393,8.393v16.787C314.754,423.708,311.397,427.066,306.361,427.066z"/>
	<path d="M339.934,427.066c-5.036,0-8.393-3.357-8.393-8.393v-16.787c0-5.036,3.357-8.393,8.393-8.393
		c5.036,0,8.393,3.357,8.393,8.393v16.787C348.328,423.708,344.97,427.066,339.934,427.066z"/>
	<path d="M373.508,427.066c-5.036,0-8.393-3.357-8.393-8.393v-16.787c0-5.036,3.357-8.393,8.393-8.393s8.393,3.357,8.393,8.393
		v16.787C381.902,423.708,378.544,427.066,373.508,427.066z"/>
	<path d="M407.082,427.066c-5.036,0-8.393-3.357-8.393-8.393v-16.787c0-5.036,3.357-8.393,8.393-8.393
		c5.036,0,8.393,3.357,8.393,8.393v16.787C415.475,423.708,412.118,427.066,407.082,427.066z"/>
	<path d="M214.033,91.328c-5.036,0-8.393-3.357-8.393-8.393c0-23.502,18.466-41.967,41.967-41.967c5.036,0,8.393,3.357,8.393,8.393
		s-3.357,8.393-8.393,8.393c-14.269,0-25.18,10.911-25.18,25.18C222.426,87.97,219.069,91.328,214.033,91.328z"/>
	<path d="M256,284.377c-23.502,0-41.967-18.466-41.967-41.967s18.466-41.967,41.967-41.967s41.967,18.466,41.967,41.967
		S279.502,284.377,256,284.377z M256,217.229c-14.269,0-25.18,10.911-25.18,25.18s10.911,25.18,25.18,25.18
		c14.269,0,25.18-10.911,25.18-25.18S270.269,217.229,256,217.229z"/>
</g>
</svg>